<?xml version="1.0" encoding="UTF-8"?>
<svg width="78px" height="78px" viewBox="0 0 78 78" version="1.1" xmlns="http://www.w3.org/2000/svg" xmlns:xlink="http://www.w3.org/1999/xlink">
    <!-- Generator: Sketch 44.1 (41455) - http://www.bohemiancoding.com/sketch -->
    <title>Mac</title>
    <desc>Created with Sketch.</desc>
    <defs></defs>
    <g id="Page-1" stroke="none" stroke-width="1" fill="none" fill-rule="evenodd">
        <g id="Mac">
            <g>
                <path d="M0,38.9993099 C0,60.5396825 17.4603174,77.9999999 39.0006902,77.9999999 C60.5396825,77.9999999 78,60.5396825 78,38.9993099 C78,17.4603176 60.5396825,0 39.0006902,0 C17.4603174,0 0,17.4603176 0,38.9993099 Z" id="Shape-Copy-4" fill="#000000" fill-rule="nonzero"></path>
                <path d="M44.631304,55.6708563 C43.9970797,54.9885302 43.7208379,54.2805748 43.7208379,52.6003456 C43.7208379,52.4904934 43.7185913,52.2600023 43.7185913,52.2600023 L42.7426289,52.2600023 L36.5629162,52.2600023 L35.5872995,52.2600023 C35.5872995,52.2600023 35.5849665,52.5318283 35.5849665,52.6003456 C35.5849665,54.2805748 35.3086383,54.9885302 34.6741547,55.6708563 C34.3259361,56.0323416 34.2616496,56.107331 33.8894964,56.4930648 C33.1369814,57.2275987 34.3439951,57.2512433 34.9047738,57.2512433 L36.5627434,57.2512433 L42.742456,57.2512433 L44.4004256,57.2512433 C44.9612043,57.2512433 46.1686499,57.2275987 45.4158757,56.4930648 C45.0438955,56.1072446 44.979609,56.0323416 44.631304,55.6708563 Z M58.0289909,22 L20.9514927,22 C19.8737434,22 19,22.8931422 19,23.995202 L19,49.9346398 C19,51.0366133 19.8737434,51.930187 20.9514927,51.930187 L58.0289908,51.930187 C59.1069993,51.930187 59.9806563,51.0366133 59.9806563,49.9346398 L59.9806564,23.995202 C59.9806564,22.8932284 59.1069994,22 58.0289909,22 Z M39.4900258,22.6648947 C39.6700107,22.6648947 39.8155193,22.8139243 39.8155193,22.9973852 C39.8155193,23.1811913 39.6700106,23.3299621 39.4900258,23.3299621 C39.3107321,23.3299621 39.1647913,23.1812776 39.1647913,22.9973852 C39.1649642,22.8139243 39.3107321,22.6648947 39.4900258,22.6648947 Z M58.0289909,45.9440633 L20.9514927,45.9440633 L20.9514927,23.9952019 L58.0289908,23.9952019 L58.0289909,45.9440633 Z" id="Shape" fill="#FFFFFF" fill-rule="nonzero"></path>
                <path d="M40.4323533,31.6517922 C40.9066607,31.0780585 41.7160959,31 41.7160959,31 C41.7160959,31 41.7590574,31.8487517 41.2848366,32.4218929 C40.8105638,32.9956625 40.0010075,33.0744751 40.0010075,33.0744751 C40.0010075,33.0744751 39.9580978,32.2240717 40.4323533,31.6517922 L40.4323533,31.6517922 Z" id="Path" fill="#FFFFFF"></path>
                <path d="M42.9419777,37.4469656 C42.9419777,37.4469656 42.6209858,38.2994515 42.2714452,38.8480692 C41.9218354,39.3958433 41.4411089,39.7927065 40.9755737,39.7927065 C40.5091908,39.7927065 40.0864962,39.4113903 39.6351316,39.4113903 C39.1831096,39.4113903 38.6157506,39.7927065 38.1343839,39.7927065 C37.6536227,39.7927065 37.1566321,39.3483224 36.5941523,38.2512304 C35.892891,36.8813825 35.8771978,35.4067264 36.2123775,34.3862029 C36.5477476,33.3656794 37.5061727,33.0215972 38.0764731,33.0305376 C38.7669033,33.0408784 39.2856083,33.4266648 39.5328059,33.4266648 C39.76566,33.4266648 40.5678802,33 41.1503787,33 C41.6346349,33 42.3316572,33.3285531 42.7277236,33.9223938 C42.1611086,34.2494569 41.7764443,34.8804598 41.7764443,35.60365 C41.7764443,36.4182556 42.2628114,37.1132421 42.9483623,37.3918686 C42.9440886,37.424022 42.9419777,37.4469656 42.9419777,37.4469656 L42.9419777,37.4469656 Z" id="Path" fill="#FFFFFF"></path>
            </g>
        </g>
    </g>
</svg>