<?xml version="1.0" encoding="UTF-8"?>
<svg width="78px" height="78px" viewBox="0 0 78 78" version="1.1" xmlns="http://www.w3.org/2000/svg" xmlns:xlink="http://www.w3.org/1999/xlink">
    <!-- Generator: Sketch 44.1 (41455) - http://www.bohemiancoding.com/sketch -->
    <title>iOS</title>
    <desc>Created with Sketch.</desc>
    <defs></defs>
    <g id="Page-1" stroke="none" stroke-width="1" fill="none" fill-rule="evenodd">
        <g id="iOS">
            <g>
                <path d="M0,38.9993099 C0,60.5396825 17.4603174,77.9999999 39.0006902,77.9999999 C60.5396825,77.9999999 78,60.5396825 78,38.9993099 C78,17.4603176 60.5396825,0 39.0006902,0 C17.4603174,0 0,17.4603176 0,38.9993099 Z" id="Shape-Copy" fill="#000000" fill-rule="nonzero"></path>
                <path d="M41.2235312,20.2306222 C43.6628262,17.3868988 47.8256358,17 47.8256358,17 C47.8256358,17 48.0465809,21.2068563 45.6077308,24.0476433 C43.1686138,26.8915447 39.0051813,27.2821807 39.0051813,27.2821807 C39.0051813,27.2821807 38.7845031,23.067138 41.2235312,20.2306222 L41.2235312,20.2306222 Z" id="Path" fill="#FFFFFF"></path>
                <path d="M56.7015997,49.0414816 C56.7015997,49.0414816 55.0507843,53.2668463 53.2531468,55.9860823 C51.4551533,58.7011362 48.9828456,60.6681977 46.588665,60.6681977 C44.1901242,60.6681977 42.0162659,58.7781956 39.6949626,58.7781956 C37.3702779,58.7781956 34.4524314,60.6681977 31.9768313,60.6681977 C29.5043455,60.6681977 26.9483936,58.4655978 24.0556405,53.0278377 C20.4491535,46.2381565 20.3684458,38.9289918 22.0922273,33.8707448 C23.8169877,28.8124977 28.7460312,27.1070468 31.6790047,27.1513603 C35.2297883,27.2026146 37.897414,29.1147735 39.1687163,29.1147735 C40.3662515,29.1147735 44.4919552,27 47.4876618,27 C49.9781221,27 53.5628082,28.6284806 55.5997214,31.5718651 C52.6857013,33.1929601 50.7074279,36.3205398 50.7074279,39.9050479 C50.7074279,43.9426583 53.2087442,47.3873738 56.7344345,48.7683923 C56.7124556,48.927761 56.7015997,49.0414816 56.7015997,49.0414816 L56.7015997,49.0414816 Z" id="Path" fill="#FFFFFF"></path>
            </g>
        </g>
    </g>
</svg>