<?xml version="1.0" encoding="UTF-8"?>
<svg width="88px" height="88px" viewBox="0 0 88 88" version="1.1" xmlns="http://www.w3.org/2000/svg" xmlns:xlink="http://www.w3.org/1999/xlink">
    <!-- Generator: Sketch 51.2 (57519) - http://www.bohemiancoding.com/sketch -->
    <title>Artboard</title>
    <desc>Created with Sketch.</desc>
    <defs>
        <polygon id="path-1" points="0 54 54 54 54 0 0 0"></polygon>
    </defs>
    <g id="Artboard" stroke="none" stroke-width="1" fill="none" fill-rule="evenodd">
        <g id="Group-9" transform="translate(18.000000, 6.000000)">
            <path d="M15,17 C19.9703226,17 24,21.0296774 24,26 C24,30.9703226 19.9703226,35 15,35 C10.0296774,35 6,30.9703226 6,26 C6,21.0296774 10.0296774,17 15,17" id="Fill-1" fill="#FFFFFF" fill-rule="nonzero"></path>
            <path d="M37,17 C41.9703226,17 46,21.0296774 46,26 C46,30.9703226 41.9703226,35 37,35 C32.0296774,35 28,30.9703226 28,26 C28,21.0296774 32.0296774,17 37,17" id="Fill-3" fill="#FFFFFF" fill-rule="nonzero"></path>
            <path d="M27,0 C19.6089385,0 12.8212291,2.7150838 7.99441341,7.99441341 C2.7150838,13.2737431 0,19.9106145 0,27 C0,34.0893855 2.7150838,41.1787709 7.99441341,46.0055866 C13.2737431,51.2849162 19.9106145,54 27,54 C34.0893855,54 41.1787709,51.2849162 46.0055866,46.0055866 C51.2849162,40.7262569 54,34.0893855 54,27 C54,19.9106145 51.2849162,12.8212291 46.0055866,7.99441341 C41.1787709,2.7150838 34.3910615,0 27,0 M27,2.7150838 C40.424581,2.7150838 51.2849162,13.575419 51.2849162,27 C51.2849162,40.424581 40.424581,51.2849162 27,51.2849162 C13.575419,51.2849162 2.7150838,40.424581 2.7150838,27 C2.7150838,13.575419 13.575419,2.7150838 27,2.7150838" id="Fill-5" fill="#FFFFFF" fill-rule="nonzero"></path>
            <g id="Fill-7-Clipped">
                <mask id="mask-2" fill="white">
                    <use xlink:href="#path-1"></use>
                </mask>
                <g id="path-1"></g>
                <polygon id="Fill-7" fill="#FFFFFF" fill-rule="nonzero" mask="url(#mask-2)" points="23.3181818 36.8181818 30.6818182 36.8181818 30.6818182 34.3636364 23.3181818 34.3636364"></polygon>
            </g>
        </g>
        <path d="M24.43,68.968 C24.808,68.968 25.132,69.076 25.384,69.328 C25.636,69.562 25.762,69.868 25.762,70.246 C25.762,70.624 25.618,70.93 25.366,71.182 C25.114,71.416 24.79,71.542 24.43,71.542 C24.052,71.542 23.746,71.416 23.494,71.182 C23.242,70.93 23.116,70.606 23.116,70.246 C23.116,69.868 23.242,69.562 23.494,69.328 C23.746,69.076 24.052,68.968 24.43,68.968 Z M23.476,72.694 L25.384,72.694 L25.384,82 L23.476,82 L23.476,72.694 Z M28.138,69.148 L34.006,69.148 C35.266,69.148 36.238,69.436 36.958,70.048 C37.642,70.624 37.984,71.398 37.984,72.388 C37.984,73.108 37.804,73.72 37.444,74.224 C37.084,74.692 36.598,75.052 35.95,75.286 C36.796,75.448 37.444,75.79 37.876,76.312 C38.308,76.834 38.524,77.536 38.524,78.4 C38.524,79.696 38.074,80.632 37.192,81.244 C36.436,81.748 35.374,82 34.006,82 L28.138,82 L28.138,69.148 Z M30.1,70.768 L30.1,74.602 L33.484,74.602 C34.384,74.602 35.032,74.44 35.428,74.134 C35.824,73.81 36.022,73.306 36.022,72.622 C36.022,71.974 35.824,71.506 35.428,71.218 C35.032,70.912 34.384,70.768 33.52,70.768 L30.1,70.768 Z M30.1,76.204 L30.1,80.38 L33.736,80.38 C34.564,80.38 35.212,80.236 35.68,79.984 C36.256,79.642 36.562,79.102 36.562,78.364 C36.562,77.608 36.328,77.05 35.878,76.708 C35.428,76.366 34.726,76.204 33.79,76.204 L30.1,76.204 Z M44.266,72.442 C45.778,72.442 46.948,72.946 47.74,73.99 C48.46,74.926 48.838,76.222 48.856,77.878 L41.8,77.878 C41.872,78.778 42.106,79.48 42.538,79.966 C42.97,80.434 43.564,80.686 44.32,80.686 C44.986,80.686 45.526,80.524 45.94,80.218 C46.264,79.966 46.534,79.552 46.786,79.012 L48.694,79.012 C48.478,79.876 48.064,80.614 47.416,81.19 C46.606,81.892 45.58,82.252 44.338,82.252 C42.97,82.252 41.872,81.82 41.08,80.974 C40.216,80.074 39.784,78.868 39.784,77.338 C39.784,75.952 40.18,74.8 41.008,73.864 C41.8,72.91 42.898,72.442 44.266,72.442 Z M44.32,74.008 C43.6,74.008 43.042,74.206 42.61,74.638 C42.214,75.052 41.944,75.646 41.836,76.438 L46.858,76.438 C46.678,74.818 45.832,74.008 44.32,74.008 Z M53.302,69.688 L53.302,72.694 L55.426,72.694 L55.426,74.278 L53.302,74.278 L53.302,79.678 C53.302,79.93 53.356,80.11 53.464,80.236 C53.572,80.344 53.734,80.416 53.968,80.416 L55.192,80.416 L55.192,82 L53.662,82 C52.87,82 52.276,81.784 51.916,81.37 C51.556,80.974 51.394,80.416 51.394,79.678 L51.394,74.278 L49.666,74.278 L49.666,72.694 L51.394,72.694 L51.394,70.48 L53.302,69.688 Z M61.15,72.442 C62.518,72.442 63.526,72.784 64.174,73.468 C64.732,74.062 65.02,74.926 65.02,76.06 L65.02,82 L63.256,82 L63.256,80.686 C62.896,81.154 62.446,81.532 61.906,81.802 C61.294,82.09 60.574,82.252 59.746,82.252 C58.774,82.252 58.018,82 57.478,81.514 C56.884,81.028 56.596,80.398 56.596,79.624 C56.596,78.58 57.01,77.77 57.838,77.212 C58.594,76.672 59.674,76.402 61.042,76.366 L63.13,76.312 L63.13,75.934 C63.13,74.638 62.428,73.99 61.024,73.99 C60.43,73.99 59.944,74.098 59.584,74.314 C59.152,74.566 58.882,74.944 58.774,75.466 L56.884,75.304 C57.082,74.296 57.586,73.54 58.378,73.072 C59.062,72.64 59.998,72.442 61.15,72.442 Z M63.13,77.698 L61.168,77.752 C59.422,77.788 58.558,78.4 58.558,79.552 C58.558,79.912 58.702,80.2 59.008,80.434 C59.296,80.668 59.692,80.794 60.178,80.794 C60.988,80.794 61.672,80.542 62.248,80.056 C62.824,79.57 63.13,78.958 63.13,78.238 L63.13,77.698 Z" id="iBeta" fill="#FFFFFF"></path>
    </g>
</svg>